{
    "asset" : {
        "generator" : "Khronos glTF Blender I/O v0.9.36",
        "version" : "2.0"
    },
    "scene" : 0,
    "scenes" : [
        {
            "name" : "Scene",
            "nodes" : [
                0,
                1,
                2,
                3,
                4,
                5,
                6
            ]
        }
    ],
    "nodes" : [
        {
            "mesh" : 0,
            "name" : "b_Stroke_Limiter_Cbore_Half_001_",
            "rotation" : [
                0.7071068286895752,
                0,
                0,
                0.7071067094802856
            ]
        },
        {
            "mesh" : 1,
            "name" : "b_Shim_001_",
            "rotation" : [
                0.7071068286895752,
                0,
                0,
                0.7071067094802856
            ]
        },
        {
            "mesh" : 2,
            "name" : "b_Shim_001_001",
            "rotation" : [
                0.7071068286895752,
                0,
                0,
                0.7071067094802856
            ]
        },
        {
            "mesh" : 3,
            "name" : "b_Stroke_Limiter_Threaded_Half_001_",
            "rotation" : [
                0.7071068286895752,
                0,
                0,
                0.7071067094802856
            ]
        },
        {
            "mesh" : 4,
            "name" : "b_Torus_002_",
            "rotation" : [
                0.7071068286895752,
                0,
                0,
                0.7071067094802856
            ]
        },
        {
            "mesh" : 5,
            "name" : "Torus_001",
            "rotation" : [
                0.7071068286895752,
                0,
                0,
                0.7071067094802856
            ]
        },
        {
            "mesh" : 6,
            "name" : "b_Torus_002_001",
            "rotation" : [
                0.7071068286895752,
                0,
                0,
                0.7071067094802856
            ]
        }
    ],
    "materials" : [
        {
            "doubleSided" : true,
            "name" : "color_fafafa",
            "pbrMetallicRoughness" : {
                "baseColorFactor" : [
                    0.980400025844574,
                    0.980400025844574,
                    0.980400025844574,
                    1
                ],
                "metallicFactor" : 0,
                "roughnessFactor" : 1
            }
        },
        {
            "doubleSided" : true,
            "name" : "color_e7e700",
            "pbrMetallicRoughness" : {
                "baseColorFactor" : [
                    0.9059000015258789,
                    0.9059000015258789,
                    0,
                    1
                ],
                "metallicFactor" : 0,
                "roughnessFactor" : 1
            }
        },
        {
            "doubleSided" : true,
            "name" : "color_73ff73",
            "pbrMetallicRoughness" : {
                "baseColorFactor" : [
                    0.45489999651908875,
                    1,
                    0.45489999651908875,
                    1
                ],
                "metallicFactor" : 0,
                "roughnessFactor" : 1
            }
        }
    ],
    "meshes" : [
        {
            "name" : "b_Stroke_Limiter_Cbore_Half_001_",
            "primitives" : [
                {
                    "attributes" : {
                        "POSITION" : 0,
                        "NORMAL" : 1
                    },
                    "indices" : 2,
                    "material" : 0
                }
            ]
        },
        {
            "name" : "b_Shim_001_",
            "primitives" : [
                {
                    "attributes" : {
                        "POSITION" : 3,
                        "NORMAL" : 4
                    },
                    "indices" : 5,
                    "material" : 1
                }
            ]
        },
        {
            "name" : "b_Shim_001_001",
            "primitives" : [
                {
                    "attributes" : {
                        "POSITION" : 6,
                        "NORMAL" : 7
                    },
                    "indices" : 8,
                    "material" : 1
                }
            ]
        },
        {
            "name" : "b_Stroke_Limiter_Threaded_Half_001_",
            "primitives" : [
                {
                    "attributes" : {
                        "POSITION" : 9,
                        "NORMAL" : 10
                    },
                    "indices" : 11,
                    "material" : 0
                }
            ]
        },
        {
            "name" : "b_Torus_002_",
            "primitives" : [
                {
                    "attributes" : {
                        "POSITION" : 12,
                        "NORMAL" : 13
                    },
                    "indices" : 14,
                    "material" : 2
                }
            ]
        },
        {
            "name" : "Torus_001",
            "primitives" : [
                {
                    "attributes" : {
                        "POSITION" : 15,
                        "NORMAL" : 16
                    },
                    "indices" : 17,
                    "material" : 2
                }
            ]
        },
        {
            "name" : "b_Torus_002_001",
            "primitives" : [
                {
                    "attributes" : {
                        "POSITION" : 18,
                        "NORMAL" : 19
                    },
                    "indices" : 20,
                    "material" : 2
                }
            ]
        }
    ],
    "accessors" : [
        {
            "bufferView" : 0,
            "componentType" : 5126,
            "count" : 5540,
            "max" : [
                63.49505615234375,
                69.8499984741211,
                63.233402252197266
            ],
            "min" : [
                -63.49505615234375,
                -69.8499984741211,
                0.7924799919128418
            ],
            "type" : "VEC3"
        },
        {
            "bufferView" : 1,
            "componentType" : 5126,
            "count" : 5540,
            "type" : "VEC3"
        },
        {
            "bufferView" : 2,
            "componentType" : 5123,
            "count" : 6804,
            "type" : "SCALAR"
        },
        {
            "bufferView" : 3,
            "componentType" : 5126,
            "count" : 374,
            "max" : [
                63.5,
                42.86249923706055,
                0.7924799919128418
            ],
            "min" : [
                34.92499923706055,
                -66.67500305175781,
                -0.7950199842453003
            ],
            "type" : "VEC3"
        },
        {
            "bufferView" : 4,
            "componentType" : 5126,
            "count" : 374,
            "type" : "VEC3"
        },
        {
            "bufferView" : 5,
            "componentType" : 5123,
            "count" : 684,
            "type" : "SCALAR"
        },
        {
            "bufferView" : 6,
            "componentType" : 5126,
            "count" : 378,
            "max" : [
                -34.92499923706055,
                42.86249923706055,
                0.7924799919128418
            ],
            "min" : [
                -63.5,
                -66.67500305175781,
                -0.7950199842453003
            ],
            "type" : "VEC3"
        },
        {
            "bufferView" : 7,
            "componentType" : 5126,
            "count" : 378,
            "type" : "VEC3"
        },
        {
            "bufferView" : 8,
            "componentType" : 5123,
            "count" : 684,
            "type" : "SCALAR"
        },
        {
            "bufferView" : 9,
            "componentType" : 5126,
            "count" : 5190,
            "max" : [
                63.49505615234375,
                69.8499984741211,
                -0.7950170040130615
            ],
            "min" : [
                -63.49505615234375,
                -69.8499984741211,
                -63.23594665527344
            ],
            "type" : "VEC3"
        },
        {
            "bufferView" : 10,
            "componentType" : 5126,
            "count" : 5190,
            "type" : "VEC3"
        },
        {
            "bufferView" : 11,
            "componentType" : 5123,
            "count" : 5568,
            "type" : "SCALAR"
        },
        {
            "bufferView" : 12,
            "componentType" : 5126,
            "count" : 5482,
            "max" : [
                33.337501525878906,
                -36.52407455444336,
                33.30746078491211
            ],
            "min" : [
                -33.21739959716797,
                -39.675926208496094,
                -33.30746078491211
            ],
            "type" : "VEC3"
        },
        {
            "bufferView" : 13,
            "componentType" : 5126,
            "count" : 5482,
            "type" : "VEC3"
        },
        {
            "bufferView" : 14,
            "componentType" : 5123,
            "count" : 5772,
            "type" : "SCALAR"
        },
        {
            "bufferView" : 15,
            "componentType" : 5126,
            "count" : 5482,
            "max" : [
                33.337501525878906,
                39.675926208496094,
                33.30746078491211
            ],
            "min" : [
                -33.21739959716797,
                36.52407455444336,
                -33.30746078491211
            ],
            "type" : "VEC3"
        },
        {
            "bufferView" : 16,
            "componentType" : 5126,
            "count" : 5482,
            "type" : "VEC3"
        },
        {
            "bufferView" : 17,
            "componentType" : 5123,
            "count" : 5772,
            "type" : "SCALAR"
        },
        {
            "bufferView" : 18,
            "componentType" : 5126,
            "count" : 5488,
            "max" : [
                33.337501525878906,
                1.5759249925613403,
                33.30746078491211
            ],
            "min" : [
                -33.21739959716797,
                -1.5759249925613403,
                -33.30746078491211
            ],
            "type" : "VEC3"
        },
        {
            "bufferView" : 19,
            "componentType" : 5126,
            "count" : 5488,
            "type" : "VEC3"
        },
        {
            "bufferView" : 20,
            "componentType" : 5123,
            "count" : 5772,
            "type" : "SCALAR"
        }
    ],
    "bufferViews" : [
        {
            "buffer" : 0,
            "byteLength" : 66480,
            "byteOffset" : 0
        },
        {
            "buffer" : 0,
            "byteLength" : 66480,
            "byteOffset" : 66480
        },
        {
            "buffer" : 0,
            "byteLength" : 13608,
            "byteOffset" : 132960
        },
        {
            "buffer" : 0,
            "byteLength" : 4488,
            "byteOffset" : 146568
        },
        {
            "buffer" : 0,
            "byteLength" : 4488,
            "byteOffset" : 151056
        },
        {
            "buffer" : 0,
            "byteLength" : 1368,
            "byteOffset" : 155544
        },
        {
            "buffer" : 0,
            "byteLength" : 4536,
            "byteOffset" : 156912
        },
        {
            "buffer" : 0,
            "byteLength" : 4536,
            "byteOffset" : 161448
        },
        {
            "buffer" : 0,
            "byteLength" : 1368,
            "byteOffset" : 165984
        },
        {
            "buffer" : 0,
            "byteLength" : 62280,
            "byteOffset" : 167352
        },
        {
            "buffer" : 0,
            "byteLength" : 62280,
            "byteOffset" : 229632
        },
        {
            "buffer" : 0,
            "byteLength" : 11136,
            "byteOffset" : 291912
        },
        {
            "buffer" : 0,
            "byteLength" : 65784,
            "byteOffset" : 303048
        },
        {
            "buffer" : 0,
            "byteLength" : 65784,
            "byteOffset" : 368832
        },
        {
            "buffer" : 0,
            "byteLength" : 11544,
            "byteOffset" : 434616
        },
        {
            "buffer" : 0,
            "byteLength" : 65784,
            "byteOffset" : 446160
        },
        {
            "buffer" : 0,
            "byteLength" : 65784,
            "byteOffset" : 511944
        },
        {
            "buffer" : 0,
            "byteLength" : 11544,
            "byteOffset" : 577728
        },
        {
            "buffer" : 0,
            "byteLength" : 65856,
            "byteOffset" : 589272
        },
        {
            "buffer" : 0,
            "byteLength" : 65856,
            "byteOffset" : 655128
        },
        {
            "buffer" : 0,
            "byteLength" : 11544,
            "byteOffset" : 720984
        }
    ],
    "buffers" : [
        {
            "byteLength" : 732528,
            "uri" : "data:application/octet-stream;base64,"
        }
    ]
}
